<?xml version="1.0" encoding="UTF-8" standalone="no"?>
<svg
   xmlns:dc="http://purl.org/dc/elements/1.1/"
   xmlns:cc="http://creativecommons.org/ns#"
   xmlns:rdf="http://www.w3.org/1999/02/22-rdf-syntax-ns#"
   xmlns:svg="http://www.w3.org/2000/svg"
   xmlns="http://www.w3.org/2000/svg"
   version="1.1"
   id="svg2"
   height="64"
   width="64">
  <defs
     id="defs4" />
  <metadata
     id="metadata7">
    <rdf:RDF>
      <cc:Work
         rdf:about="">
        <dc:format>image/svg+xml</dc:format>
        <dc:type
           rdf:resource="http://purl.org/dc/dcmitype/StillImage" />
        <dc:title></dc:title>
      </cc:Work>
    </rdf:RDF>
  </metadata>
  <g
     style="display:inline"
     transform="translate(0,-988.3622)"
     id="layer1">
    <rect
       ry="5.0000172"
       y="988.36218"
       x="0"
       height="64"
       width="64"
       id="rect3196"
       style="opacity:1;fill:#252525;fill-opacity:1;stroke:none;stroke-width:3;stroke-linecap:round;stroke-linejoin:round;stroke-miterlimit:4;stroke-dasharray:none;stroke-dashoffset:0;stroke-opacity:1" />
  </g>
  <g
     style="display:inline"
     transform="translate(0,-988.3622)"
     id="g4204">
    <path
       id="path4206"
       d="m 51.363281,988.3622 -51.363281,20.6797 0,6.4668 62.853516,-25.3047 c -0.915519,-1.11685 -2.290149,-1.8418 -3.853516,-1.8418 l -7.636719,0 z"
       style="opacity:1;fill:#3e4a2d;fill-opacity:1;stroke:none;stroke-width:3;stroke-linecap:round;stroke-linejoin:round;stroke-miterlimit:4;stroke-dasharray:none;stroke-dashoffset:0;stroke-opacity:1" />
    <path
       id="path4208"
       d="m 64,996.20986 -64,25.76754 0,21.5606 64,-25.7676 0,-21.56054 z"
       style="opacity:1;fill:#3e4a2d;fill-opacity:1;stroke:none;stroke-width:3;stroke-linecap:round;stroke-linejoin:round;stroke-miterlimit:4;stroke-dasharray:none;stroke-dashoffset:0;stroke-opacity:1" />
  </g>
  <g
     id="layer2">
    <path
       id="path4166"
       d="m 8,20 19,-9 0,16 -18,10 z"
       style="fill:#252525;fill-opacity:1;fill-rule:evenodd;stroke:none;stroke-width:1px;stroke-linecap:butt;stroke-linejoin:miter;stroke-opacity:1" />
    <path
       id="path4168"
       d="m 27,11 0,18 28,5 1,-19 z"
       style="fill:#252525;fill-opacity:1;fill-rule:evenodd;stroke:none;stroke-width:1px;stroke-linecap:butt;stroke-linejoin:miter;stroke-opacity:1" />
    <path
       id="path4162"
       d="m 8,20 30,5 0,34 -29,-6 z"
       style="fill:#252525;fill-opacity:1;fill-rule:evenodd;stroke:none;stroke-width:1px;stroke-linecap:butt;stroke-linejoin:miter;stroke-opacity:1" />
    <path
       id="path4164"
       d="m 38,25 18,-10 -1,31 -17,13 z"
       style="fill:#252525;fill-opacity:1;fill-rule:evenodd;stroke:none;stroke-width:1px;stroke-linecap:butt;stroke-linejoin:miter;stroke-opacity:1" />
    <path
       id="path4160"
       d="m 26.841797,9.96875 -19.8613282,9.408203 0.019531,0.654297 1.0234375,33.787109 30.2207037,6.253907 17.740234,-13.566407 1.044922,-32.373047 -30.1875,-4.164062 z m 1.158203,2.177734 24.894531,3.433594 -15.074219,8.376953 -9.820312,-1.636719 0,-10.173828 z m -2,0.433594 0,9.40625 -14.689453,-2.449219 14.689453,-6.957031 z m 28.943359,4.152344 -0.927734,28.761719 -15.015625,11.482421 0,-31.388671 15.943359,-8.855469 z m -45.9062496,4.453125 27.9628906,4.660156 0,31.925781 -27.0234375,-5.589843 -0.9394531,-30.996094 z"
       style="color:#000000;font-style:normal;font-variant:normal;font-weight:normal;font-stretch:normal;font-size:medium;line-height:normal;font-family:sans-serif;text-indent:0;text-align:start;text-decoration:none;text-decoration-line:none;text-decoration-style:solid;text-decoration-color:#000000;letter-spacing:normal;word-spacing:normal;text-transform:none;direction:ltr;block-progression:tb;writing-mode:lr-tb;baseline-shift:baseline;text-anchor:start;white-space:normal;clip-rule:nonzero;display:inline;overflow:visible;visibility:visible;opacity:1;isolation:auto;mix-blend-mode:normal;color-interpolation:sRGB;color-interpolation-filters:linearRGB;solid-color:#000000;solid-opacity:1;fill:#9be634;fill-opacity:1;fill-rule:evenodd;stroke:none;stroke-width:2;stroke-linecap:butt;stroke-linejoin:miter;stroke-miterlimit:4;stroke-dasharray:none;stroke-dashoffset:0;stroke-opacity:1;color-rendering:auto;image-rendering:auto;shape-rendering:auto;text-rendering:auto;enable-background:accumulate" />
    <g
       id="g4210">
      <path
         style="font-style:normal;font-weight:normal;font-size:medium;line-height:0%;font-family:Sans;text-align:start;letter-spacing:0px;word-spacing:0px;text-anchor:start;fill:#9be634;fill-opacity:1;stroke:none;stroke-width:1px;stroke-linecap:butt;stroke-linejoin:miter;stroke-opacity:1"
         id="path4195"
         d="m 13.728598,43.626064 0.156769,5.059466 -1.701063,-0.385721 -0.40802,-13.168243 1.701063,0.385722 0.04487,1.447996 q 0.506914,-0.730834 1.3034,-0.956202 0.805418,-0.231799 1.936396,0.02465 1.875766,0.425336 3.086278,2.069984 1.219707,1.646732 1.289381,3.895384 0.06968,2.248652 -1.064521,3.361629 -1.125002,1.115062 -3.000769,0.689725 -1.130977,-0.256452 -1.961995,-0.850862 -0.822087,-0.600842 -1.381785,-1.573532 z m 5.652838,-2.025191 q -0.05358,-1.729078 -0.856301,-2.883742 -0.793795,-1.161099 -2.136255,-1.465506 -1.342461,-0.304408 -2.084221,0.508499 -0.732829,0.806472 -0.679253,2.53555 0.05357,1.729076 0.84737,2.890174 0.802725,1.154665 2.145186,1.459073 1.342461,0.304407 2.07529,-0.502066 0.74176,-0.812905 0.688184,-2.541982 z" />
      <path
         style="font-style:normal;font-weight:normal;font-size:medium;line-height:0%;font-family:Sans;text-align:start;letter-spacing:0px;word-spacing:0px;text-anchor:start;fill:#9be634;fill-opacity:1;stroke:none;stroke-width:1px;stroke-linecap:butt;stroke-linejoin:miter;stroke-opacity:1"
         id="path4197"
         d="m 29.895361,40.674823 q -0.289794,-0.217952 -0.632117,-0.363237 -0.333394,-0.15172 -0.737971,-0.243459 -1.43441,-0.325258 -2.179865,0.368401 -0.736523,0.687226 -0.686378,2.305574 l 0.155712,5.025397 -1.701063,-0.385722 -0.295591,-9.539736 1.701064,0.385722 0.04592,1.482066 q 0.506386,-0.747868 1.348583,-0.971328 0.841933,-0.231978 2.064859,0.04532 0.174705,0.03961 0.38698,0.113127 0.212011,0.06499 0.47079,0.165957 l 0.05906,1.61191 z" />
      <path
         style="font-style:normal;font-weight:normal;font-size:medium;line-height:0%;font-family:Sans;text-align:start;letter-spacing:0px;word-spacing:0px;text-anchor:start;fill:#9be634;fill-opacity:1;stroke:none;stroke-width:1px;stroke-linecap:butt;stroke-linejoin:miter;stroke-opacity:1"
         id="path4199"
         d="m 33.022636,39.616363 1.682319,0.383637 0.05918,9.710088 q 0.01111,1.822771 -0.733635,2.469494 -0.735602,0.648808 -2.390493,0.271427 l -0.640012,-0.145949 -0.0081,-1.32875 0.448009,0.102164 q 0.960019,0.218924 1.304911,-0.11921 0.344943,-0.329616 0.337,-1.632813 l -0.05918,-9.710088 z m -0.02263,-3.713683 1.68232,0.383637 0.01209,1.984606 -1.68232,-0.383637 -0.01209,-1.984606 z" />
    </g>
  </g>
</svg>
